<svg width="154" height="19" viewBox="0 0 154 19" fill="none" xmlns="http://www.w3.org/2000/svg">
<path d="M0.0980001 14V1.22H5.012C6.068 1.22 6.998 1.388 7.802 1.724C8.606 2.06 9.278 2.516 9.818 3.092C10.358 3.668 10.766 4.346 11.042 5.126C11.318 5.894 11.456 6.716 11.456 7.592C11.456 8.564 11.3 9.446 10.988 10.238C10.688 11.018 10.256 11.69 9.692 12.254C9.128 12.806 8.45 13.238 7.658 13.55C6.866 13.85 5.984 14 5.012 14H0.0980001ZM7.892 7.592C7.892 7.1 7.826 6.65 7.694 6.242C7.562 5.834 7.37 5.486 7.118 5.198C6.878 4.91 6.578 4.688 6.218 4.532C5.858 4.364 5.456 4.28 5.012 4.28H3.608V10.94H5.012C5.468 10.94 5.876 10.856 6.236 10.688C6.596 10.52 6.896 10.286 7.136 9.986C7.388 9.686 7.574 9.332 7.694 8.924C7.826 8.516 7.892 8.072 7.892 7.592ZM12.4449 17.762C11.9409 17.762 11.4609 17.678 11.0049 17.51C10.5489 17.342 10.1349 17.102 9.76287 16.79L11.1669 14.468C11.3829 14.708 11.6649 14.828 12.0129 14.828C12.4929 14.828 12.7329 14.57 12.7329 14.054V4.532H16.1529V13.784C16.1529 14.372 16.0629 14.906 15.8829 15.386C15.7029 15.878 15.4449 16.298 15.1089 16.646C14.7849 17.006 14.3949 17.282 13.9389 17.474C13.4829 17.666 12.9849 17.762 12.4449 17.762ZM12.7329 3.74V0.86H16.1529V3.74H12.7329ZM20.6716 14.18C20.2036 14.18 19.7656 14.102 19.3576 13.946C18.9496 13.79 18.5956 13.58 18.2956 13.316C18.0076 13.04 17.7796 12.716 17.6116 12.344C17.4436 11.972 17.3596 11.57 17.3596 11.138C17.3596 10.658 17.4616 10.22 17.6656 9.824C17.8696 9.428 18.1516 9.086 18.5116 8.798C18.8716 8.51 19.2976 8.288 19.7896 8.132C20.2936 7.976 20.8456 7.898 21.4456 7.898C22.2136 7.898 22.8496 8.018 23.3536 8.258V7.97C23.3536 7.526 23.2216 7.196 22.9576 6.98C22.7056 6.764 22.2916 6.656 21.7156 6.656C21.1756 6.656 20.6776 6.746 20.2216 6.926C19.7656 7.094 19.2856 7.346 18.7816 7.682L17.7916 5.558C19.0396 4.754 20.4616 4.352 22.0576 4.352C23.5696 4.352 24.7336 4.688 25.5496 5.36C26.3656 6.032 26.7736 7.04 26.7736 8.384V10.22C26.7736 10.544 26.8216 10.772 26.9176 10.904C27.0136 11.024 27.1816 11.096 27.4216 11.12V14C27.1456 14.06 26.8816 14.102 26.6296 14.126C26.3896 14.162 26.1736 14.18 25.9816 14.18C25.3696 14.18 24.9016 14.072 24.5776 13.856C24.2656 13.628 24.0616 13.298 23.9656 12.866L23.8936 12.524C23.4736 13.064 22.9876 13.478 22.4356 13.766C21.8836 14.042 21.2956 14.18 20.6716 14.18ZM21.6976 11.732C21.9016 11.732 22.1116 11.702 22.3276 11.642C22.5436 11.57 22.7356 11.48 22.9036 11.372C23.0356 11.276 23.1436 11.174 23.2276 11.066C23.3116 10.946 23.3536 10.826 23.3536 10.706V10.004C23.1496 9.932 22.9276 9.872 22.6876 9.824C22.4476 9.776 22.2316 9.752 22.0396 9.752C21.6196 9.752 21.2716 9.854 20.9956 10.058C20.7196 10.262 20.5816 10.52 20.5816 10.832C20.5816 11.096 20.6836 11.312 20.8876 11.48C21.1036 11.648 21.3736 11.732 21.6976 11.732ZM38.179 14H34.759V8.672C34.759 8.204 34.651 7.868 34.435 7.664C34.231 7.448 33.991 7.34 33.715 7.34C33.427 7.34 33.121 7.466 32.797 7.718C32.473 7.97 32.233 8.294 32.077 8.69V14H28.657V4.532H31.735V5.936C32.071 5.42 32.539 5.03 33.139 4.766C33.751 4.49 34.471 4.352 35.299 4.352C35.947 4.352 36.457 4.472 36.829 4.712C37.213 4.94 37.501 5.228 37.693 5.576C37.897 5.924 38.029 6.296 38.089 6.692C38.149 7.088 38.179 7.448 38.179 7.772V14ZM43.4727 14C42.8607 14 42.2967 13.88 41.7807 13.64C41.2767 13.388 40.8447 13.052 40.4847 12.632C40.1247 12.2 39.8427 11.696 39.6387 11.12C39.4467 10.544 39.3507 9.92 39.3507 9.248C39.3507 8.54 39.4587 7.886 39.6747 7.286C39.8907 6.686 40.1907 6.17 40.5747 5.738C40.9707 5.306 41.4387 4.97 41.9787 4.73C42.5187 4.478 43.1127 4.352 43.7607 4.352C44.4447 4.352 45.0447 4.49 45.5607 4.766C46.0767 5.03 46.4847 5.42 46.7847 5.936V4.532H49.7547V13.136C49.7547 13.88 49.6167 14.552 49.3407 15.152C49.0647 15.752 48.6747 16.262 48.1707 16.682C47.6667 17.102 47.0607 17.426 46.3527 17.654C45.6447 17.894 44.8587 18.014 43.9947 18.014C42.9867 18.014 42.1107 17.858 41.3667 17.546C40.6227 17.234 39.9627 16.784 39.3867 16.196L41.1867 14.324C41.5347 14.648 41.9487 14.918 42.4287 15.134C42.9207 15.362 43.4427 15.476 43.9947 15.476C44.3067 15.476 44.6007 15.434 44.8767 15.35C45.1647 15.266 45.4167 15.128 45.6327 14.936C45.8487 14.756 46.0167 14.516 46.1367 14.216C46.2687 13.916 46.3347 13.556 46.3347 13.136V12.524C46.0587 13.028 45.6627 13.4 45.1467 13.64C44.6427 13.88 44.0847 14 43.4727 14ZM44.6967 11.3C45.0447 11.3 45.3447 11.222 45.5967 11.066C45.8607 10.898 46.1067 10.652 46.3347 10.328V8.636C46.1667 8.204 45.9147 7.862 45.5787 7.61C45.2547 7.358 44.9127 7.232 44.5527 7.232C44.3127 7.232 44.0847 7.292 43.8687 7.412C43.6647 7.52 43.4847 7.67 43.3287 7.862C43.1727 8.042 43.0527 8.264 42.9687 8.528C42.8847 8.78 42.8427 9.05 42.8427 9.338C42.8427 9.926 43.0167 10.4 43.3647 10.76C43.7127 11.12 44.1567 11.3 44.6967 11.3ZM56.153 14.18C55.301 14.18 54.551 14.048 53.903 13.784C53.267 13.508 52.727 13.148 52.283 12.704C51.851 12.248 51.521 11.726 51.293 11.138C51.077 10.538 50.969 9.914 50.969 9.266C50.969 8.618 51.077 8 51.293 7.412C51.521 6.812 51.851 6.29 52.283 5.846C52.727 5.39 53.267 5.03 53.903 4.766C54.551 4.49 55.301 4.352 56.153 4.352C56.993 4.352 57.737 4.49 58.385 4.766C59.033 5.03 59.573 5.39 60.005 5.846C60.449 6.29 60.779 6.812 60.995 7.412C61.223 8 61.337 8.618 61.337 9.266C61.337 9.914 61.223 10.538 60.995 11.138C60.779 11.726 60.449 12.248 60.005 12.704C59.573 13.148 59.033 13.508 58.385 13.784C57.737 14.048 56.993 14.18 56.153 14.18ZM54.479 9.266C54.479 9.902 54.635 10.4 54.947 10.76C55.259 11.12 55.661 11.3 56.153 11.3C56.645 11.3 57.047 11.12 57.359 10.76C57.671 10.4 57.827 9.902 57.827 9.266C57.827 8.63 57.671 8.132 57.359 7.772C57.047 7.412 56.645 7.232 56.153 7.232C55.661 7.232 55.259 7.412 54.947 7.772C54.635 8.132 54.479 8.63 54.479 9.266ZM62.6234 14V1.22H68.4914C69.1154 1.22 69.6914 1.352 70.2194 1.616C70.7474 1.868 71.1974 2.204 71.5694 2.624C71.9534 3.032 72.2534 3.506 72.4694 4.046C72.6854 4.574 72.7934 5.108 72.7934 5.648C72.7934 6.392 72.6314 7.088 72.3074 7.736C71.9834 8.372 71.5334 8.894 70.9574 9.302L73.6574 14H69.6974L67.4474 10.076H66.1334V14H62.6234ZM66.1334 7.016H68.3474C68.5634 7.016 68.7614 6.896 68.9414 6.656C69.1334 6.416 69.2294 6.08 69.2294 5.648C69.2294 5.204 69.1214 4.868 68.9054 4.64C68.6894 4.4 68.4734 4.28 68.2574 4.28H66.1334V7.016ZM78.8639 14.18C78.0359 14.18 77.2979 14.054 76.6499 13.802C76.0019 13.538 75.4559 13.184 75.0119 12.74C74.5799 12.296 74.2499 11.786 74.0219 11.21C73.7939 10.634 73.6799 10.028 73.6799 9.392C73.6799 8.708 73.7879 8.06 74.0039 7.448C74.2319 6.836 74.5619 6.302 74.9939 5.846C75.4379 5.39 75.9779 5.03 76.6139 4.766C77.2619 4.49 78.0119 4.352 78.8639 4.352C79.7039 4.352 80.4479 4.49 81.0959 4.766C81.7439 5.03 82.2839 5.39 82.7159 5.846C83.1599 6.29 83.4899 6.812 83.7059 7.412C83.9339 8 84.0479 8.618 84.0479 9.266C84.0479 9.446 84.0359 9.632 84.0119 9.824C83.9999 10.004 83.9819 10.166 83.9579 10.31H77.3159C77.3519 10.814 77.5379 11.18 77.8739 11.408C78.2099 11.624 78.5759 11.732 78.9719 11.732C79.3439 11.732 79.6919 11.648 80.0159 11.48C80.3519 11.312 80.5739 11.078 80.6819 10.778L83.5799 11.606C83.1959 12.362 82.6019 12.98 81.7979 13.46C81.0059 13.94 80.0279 14.18 78.8639 14.18ZM80.3759 8.258C80.3159 7.802 80.1479 7.442 79.8719 7.178C79.5959 6.914 79.2419 6.782 78.8099 6.782C78.3779 6.782 78.0239 6.914 77.7479 7.178C77.4719 7.442 77.3039 7.802 77.2439 8.258H80.3759ZM87.9606 14.18C87.4926 14.18 87.0546 14.102 86.6466 13.946C86.2386 13.79 85.8846 13.58 85.5846 13.316C85.2966 13.04 85.0686 12.716 84.9006 12.344C84.7326 11.972 84.6486 11.57 84.6486 11.138C84.6486 10.658 84.7506 10.22 84.9546 9.824C85.1586 9.428 85.4406 9.086 85.8006 8.798C86.1606 8.51 86.5866 8.288 87.0786 8.132C87.5826 7.976 88.1346 7.898 88.7346 7.898C89.5026 7.898 90.1386 8.018 90.6426 8.258V7.97C90.6426 7.526 90.5106 7.196 90.2466 6.98C89.9946 6.764 89.5806 6.656 89.0046 6.656C88.4646 6.656 87.9666 6.746 87.5106 6.926C87.0546 7.094 86.5746 7.346 86.0706 7.682L85.0806 5.558C86.3286 4.754 87.7506 4.352 89.3466 4.352C90.8586 4.352 92.0226 4.688 92.8386 5.36C93.6546 6.032 94.0626 7.04 94.0626 8.384V10.22C94.0626 10.544 94.1106 10.772 94.2066 10.904C94.3026 11.024 94.4706 11.096 94.7106 11.12V14C94.4346 14.06 94.1706 14.102 93.9186 14.126C93.6786 14.162 93.4626 14.18 93.2706 14.18C92.6586 14.18 92.1906 14.072 91.8666 13.856C91.5546 13.628 91.3506 13.298 91.2546 12.866L91.1826 12.524C90.7626 13.064 90.2766 13.478 89.7246 13.766C89.1726 14.042 88.5846 14.18 87.9606 14.18ZM88.9866 11.732C89.1906 11.732 89.4006 11.702 89.6166 11.642C89.8326 11.57 90.0246 11.48 90.1926 11.372C90.3246 11.276 90.4326 11.174 90.5166 11.066C90.6006 10.946 90.6426 10.826 90.6426 10.706V10.004C90.4386 9.932 90.2166 9.872 89.9766 9.824C89.7366 9.776 89.5206 9.752 89.3286 9.752C88.9086 9.752 88.5606 9.854 88.2846 10.058C88.0086 10.262 87.8706 10.52 87.8706 10.832C87.8706 11.096 87.9726 11.312 88.1766 11.48C88.3926 11.648 88.6626 11.732 88.9866 11.732ZM95.424 9.266C95.424 8.618 95.538 8 95.766 7.412C95.994 6.812 96.324 6.29 96.756 5.846C97.2 5.39 97.746 5.03 98.394 4.766C99.042 4.49 99.786 4.352 100.626 4.352C101.778 4.352 102.738 4.592 103.506 5.072C104.286 5.552 104.868 6.17 105.252 6.926L101.922 7.934C101.598 7.466 101.16 7.232 100.608 7.232C100.14 7.232 99.744 7.412 99.42 7.772C99.096 8.12 98.934 8.618 98.934 9.266C98.934 9.914 99.096 10.418 99.42 10.778C99.744 11.126 100.14 11.3 100.608 11.3C101.16 11.3 101.598 11.066 101.922 10.598L105.252 11.606C104.868 12.362 104.286 12.98 103.506 13.46C102.738 13.94 101.778 14.18 100.626 14.18C99.786 14.18 99.042 14.048 98.394 13.784C97.746 13.508 97.2 13.148 96.756 12.704C96.324 12.248 95.994 11.726 95.766 11.138C95.538 10.538 95.424 9.914 95.424 9.266ZM112.977 13.478C112.497 13.682 111.981 13.856 111.429 14C110.889 14.132 110.355 14.198 109.827 14.198C109.443 14.198 109.077 14.15 108.729 14.054C108.381 13.958 108.075 13.802 107.811 13.586C107.559 13.37 107.355 13.088 107.199 12.74C107.055 12.392 106.983 11.96 106.983 11.444V7.106H105.813V4.532H106.983V1.562H110.403V4.532H112.257V7.106H110.403V10.238C110.403 10.55 110.469 10.772 110.601 10.904C110.733 11.024 110.913 11.084 111.141 11.084C111.309 11.084 111.501 11.06 111.717 11.012C111.933 10.952 112.149 10.874 112.365 10.778L112.977 13.478ZM125.052 10.724C125.052 11.3 124.932 11.798 124.692 12.218C124.452 12.626 124.122 12.962 123.702 13.226C123.282 13.49 122.79 13.688 122.226 13.82C121.674 13.94 121.086 14 120.462 14H114.18V1.22H121.596C122.04 1.22 122.442 1.316 122.802 1.508C123.162 1.7 123.468 1.952 123.72 2.264C123.972 2.564 124.164 2.912 124.296 3.308C124.44 3.692 124.512 4.088 124.512 4.496C124.512 5.096 124.356 5.672 124.044 6.224C123.744 6.764 123.288 7.172 122.676 7.448C123.408 7.664 123.984 8.042 124.404 8.582C124.836 9.11 125.052 9.824 125.052 10.724ZM121.488 10.004C121.488 9.692 121.404 9.434 121.236 9.23C121.068 9.014 120.852 8.906 120.588 8.906H117.69V11.048H120.462C120.75 11.048 120.99 10.958 121.182 10.778C121.386 10.598 121.488 10.34 121.488 10.004ZM117.69 4.208V6.17H120.084C120.324 6.17 120.54 6.104 120.732 5.972C120.936 5.84 121.038 5.576 121.038 5.18C121.038 4.832 120.954 4.586 120.786 4.442C120.618 4.286 120.42 4.208 120.192 4.208H117.69ZM126.302 0.86H129.722V10.238C129.722 10.958 130.016 11.318 130.604 11.318C130.748 11.318 130.904 11.294 131.072 11.246C131.24 11.198 131.396 11.132 131.54 11.048L131.972 13.568C131.564 13.76 131.102 13.91 130.586 14.018C130.082 14.126 129.602 14.18 129.146 14.18C128.234 14.18 127.532 13.946 127.04 13.478C126.548 13.01 126.302 12.332 126.302 11.444V0.86ZM137.434 14.18C136.582 14.18 135.832 14.048 135.184 13.784C134.548 13.508 134.008 13.148 133.564 12.704C133.132 12.248 132.802 11.726 132.574 11.138C132.358 10.538 132.25 9.914 132.25 9.266C132.25 8.618 132.358 8 132.574 7.412C132.802 6.812 133.132 6.29 133.564 5.846C134.008 5.39 134.548 5.03 135.184 4.766C135.832 4.49 136.582 4.352 137.434 4.352C138.274 4.352 139.018 4.49 139.666 4.766C140.314 5.03 140.854 5.39 141.286 5.846C141.73 6.29 142.06 6.812 142.276 7.412C142.504 8 142.618 8.618 142.618 9.266C142.618 9.914 142.504 10.538 142.276 11.138C142.06 11.726 141.73 12.248 141.286 12.704C140.854 13.148 140.314 13.508 139.666 13.784C139.018 14.048 138.274 14.18 137.434 14.18ZM135.76 9.266C135.76 9.902 135.916 10.4 136.228 10.76C136.54 11.12 136.942 11.3 137.434 11.3C137.926 11.3 138.328 11.12 138.64 10.76C138.952 10.4 139.108 9.902 139.108 9.266C139.108 8.63 138.952 8.132 138.64 7.772C138.328 7.412 137.926 7.232 137.434 7.232C136.942 7.232 136.54 7.412 136.228 7.772C135.916 8.132 135.76 8.63 135.76 9.266ZM147.465 14C146.853 14 146.289 13.88 145.773 13.64C145.269 13.388 144.837 13.052 144.477 12.632C144.117 12.2 143.835 11.696 143.631 11.12C143.439 10.544 143.343 9.92 143.343 9.248C143.343 8.54 143.451 7.886 143.667 7.286C143.883 6.686 144.183 6.17 144.567 5.738C144.963 5.306 145.431 4.97 145.971 4.73C146.511 4.478 147.105 4.352 147.753 4.352C148.437 4.352 149.037 4.49 149.553 4.766C150.069 5.03 150.477 5.42 150.777 5.936V4.532H153.747V13.136C153.747 13.88 153.609 14.552 153.333 15.152C153.057 15.752 152.667 16.262 152.163 16.682C151.659 17.102 151.053 17.426 150.345 17.654C149.637 17.894 148.851 18.014 147.987 18.014C146.979 18.014 146.103 17.858 145.359 17.546C144.615 17.234 143.955 16.784 143.379 16.196L145.179 14.324C145.527 14.648 145.941 14.918 146.421 15.134C146.913 15.362 147.435 15.476 147.987 15.476C148.299 15.476 148.593 15.434 148.869 15.35C149.157 15.266 149.409 15.128 149.625 14.936C149.841 14.756 150.009 14.516 150.129 14.216C150.261 13.916 150.327 13.556 150.327 13.136V12.524C150.051 13.028 149.655 13.4 149.139 13.64C148.635 13.88 148.077 14 147.465 14ZM148.689 11.3C149.037 11.3 149.337 11.222 149.589 11.066C149.853 10.898 150.099 10.652 150.327 10.328V8.636C150.159 8.204 149.907 7.862 149.571 7.61C149.247 7.358 148.905 7.232 148.545 7.232C148.305 7.232 148.077 7.292 147.861 7.412C147.657 7.52 147.477 7.67 147.321 7.862C147.165 8.042 147.045 8.264 146.961 8.528C146.877 8.78 146.835 9.05 146.835 9.338C146.835 9.926 147.009 10.4 147.357 10.76C147.705 11.12 148.149 11.3 148.689 11.3Z" fill="#0E9BBA"/>
</svg>
