<svg width="26" height="26" viewBox="0 0 26 26" fill="none" xmlns="http://www.w3.org/2000/svg">
<path d="M13 6.39168C14.2567 6.39168 15.275 7.41001 15.275 8.66668C15.275 9.92334 14.2567 10.9417 13 10.9417C11.7433 10.9417 10.725 9.92334 10.725 8.66668C10.725 7.41001 11.7433 6.39168 13 6.39168ZM13 16.1417C16.2175 16.1417 19.6083 17.7233 19.6083 18.4167V19.6083H6.39166V18.4167C6.39166 17.7233 9.78249 16.1417 13 16.1417ZM13 4.33334C10.6058 4.33334 8.66666 6.27251 8.66666 8.66668C8.66666 11.0608 10.6058 13 13 13C15.3942 13 17.3333 11.0608 17.3333 8.66668C17.3333 6.27251 15.3942 4.33334 13 4.33334ZM13 14.0833C10.1075 14.0833 4.33333 15.535 4.33333 18.4167V21.6667H21.6667V18.4167C21.6667 15.535 15.8925 14.0833 13 14.0833Z" fill="#212529"/>
</svg>
